<svg viewBox="0 0 36 36" xmlns="http://www.w3.org/2000/svg">
  <path
    d="M9.40781 18C9.40781 17.8545 9.46559 17.715 9.56845 17.6122C9.6713 17.5093 9.8108 17.4515 9.95625 17.4515L24.7193 17.4515L19.0749 11.8063C19.0211 11.7561 18.9778 11.6955 18.9479 11.6282C18.9179 11.561 18.9018 11.4883 18.9005 11.4147C18.8992 11.3411 18.9127 11.2679 18.9403 11.1996C18.9679 11.1313 19.0089 11.0693 19.061 11.0172C19.1131 10.9651 19.1751 10.9241 19.2434 10.8965C19.3117 10.8689 19.3849 10.8554 19.4585 10.8567C19.5321 10.858 19.6048 10.8741 19.672 10.9041C19.7393 10.934 19.7999 10.9773 19.8501 11.0311L26.4313 17.6124C26.534 17.7152 26.5917 17.8546 26.5917 18C26.5917 18.1453 26.534 18.2847 26.4313 18.3875L19.8501 24.9688C19.7461 25.0656 19.6086 25.1184 19.4665 25.1159C19.3244 25.1134 19.1889 25.0558 19.0884 24.9553C18.9879 24.8548 18.9303 24.7193 18.9278 24.5772C18.9253 24.4351 18.9781 24.2976 19.0749 24.1936L24.7193 18.5484L9.95625 18.5484C9.8108 18.5484 9.6713 18.4906 9.56845 18.3878C9.46559 18.2849 9.40781 18.1454 9.40781 18Z"
  />
  <circle cx="18" cy="18" r="17.5" fill="none"/>
</svg>