<svg viewBox="0 0 50 50" fill="none" xmlns="http://www.w3.org/2000/svg">
<g id="Arrow">
<g id="Vector">
<path d="M25 2C12.3095 2 2 12.3095 2 25C2 37.6905 12.3095 48 25 48C37.6905 48 48 37.6905 48 25C48 12.3095 37.6905 2 25 2ZM25 4C36.6095 4 46 13.3905 46 25C46 36.6095 36.6095 46 25 46C13.3905 46 4 36.6095 4 25C4 13.3905 13.3905 4 25 4ZM33 16C32.7362 16.0062 32.1829 15.8098 32 16L25 24L18 16C17.9068 15.9042 17.1231 16.052 17 16C16.8769 15.948 17.1336 16 17 16C16.8011 16.0001 16.165 15.8889 16 16C15.835 16.1111 16.0749 16.8157 16 17C15.9251 17.1843 15.9592 16.8053 16 17C16.0408 17.1947 15.8574 17.8613 16 18L24 25L16 32C15.904 32.0921 16.0528 32.8779 16 33C15.9472 33.1221 16.0014 32.867 16 33C15.9497 32.8768 15.9986 33.133 16 33C16.0503 33.1232 15.9059 33.9059 16 34C16.0941 34.0941 16.8768 33.9497 17 34C16.867 34.0014 17.1232 34.0503 17 34C16.8779 34.0528 17.133 33.9986 17 34C17.1221 33.9472 17.9079 34.096 18 34L25 26L32 34C32.0921 34.096 32.8779 33.9472 33 34C32.867 33.9986 33.1221 34.0528 33 34C32.8768 34.0503 33.133 34.0014 33 34C33.1232 33.9497 33.9059 34.0941 34 34C34.0941 33.9059 33.9497 33.1232 34 33C34.0014 33.133 34.0503 32.8768 34 33C33.9986 32.867 34.0528 33.1221 34 33C33.9472 32.8779 34.096 32.0921 34 32L26 25L34 18C34.1452 17.8603 33.959 17.1973 34 17C34.041 16.8027 34.0775 17.186 34 17C33.9225 16.814 34.1689 16.1098 34 16C33.8311 15.8902 33.2014 15.9952 33 16Z" fill="#C91C1C"/>
<path d="M25 2C12.3095 2 2 12.3095 2 25C2 37.6905 12.3095 48 25 48C37.6905 48 48 37.6905 48 25C48 12.3095 37.6905 2 25 2ZM25 4C36.6095 4 46 13.3905 46 25C46 36.6095 36.6095 46 25 46C13.3905 46 4 36.6095 4 25C4 13.3905 13.3905 4 25 4ZM33 16C32.7362 16.0062 32.1829 15.8098 32 16L25 24L18 16C17.9068 15.9042 17.1231 16.052 17 16C16.8769 15.948 17.1336 16 17 16C16.8011 16.0001 16.165 15.8889 16 16C15.835 16.1111 16.0749 16.8157 16 17C15.9251 17.1843 15.9592 16.8053 16 17C16.0408 17.1947 15.8574 17.8613 16 18L24 25L16 32C15.904 32.0921 16.0528 32.8779 16 33C15.9472 33.1221 16.0014 32.867 16 33C15.9497 32.8768 15.9986 33.133 16 33C16.0503 33.1232 15.9059 33.9059 16 34C16.0941 34.0941 16.8768 33.9497 17 34C16.867 34.0014 17.1232 34.0503 17 34C16.8779 34.0528 17.133 33.9986 17 34C17.1221 33.9472 17.9079 34.096 18 34L25 26L32 34C32.0921 34.096 32.8779 33.9472 33 34C32.867 33.9986 33.1221 34.0528 33 34C32.8768 34.0503 33.133 34.0014 33 34C33.1232 33.9497 33.9059 34.0941 34 34C34.0941 33.9059 33.9497 33.1232 34 33C34.0014 33.133 34.0503 32.8768 34 33C33.9986 32.867 34.0528 33.1221 34 33C33.9472 32.8779 34.096 32.0921 34 32L26 25L34 18C34.1452 17.8603 33.959 17.1973 34 17C34.041 16.8027 34.0775 17.186 34 17C33.9225 16.814 34.1689 16.1098 34 16C33.8311 15.8902 33.2014 15.9952 33 16Z" stroke="#C91C1C"/>
</g>
</g>
</svg>
