<svg viewBox="0 0 24 24"  xmlns="http://www.w3.org/2000/svg">
<g id="icons/footer/26px">
<path id="Vector" d="M20.149 20.8326H3.85024C2.87482 20.8313 1.93972 20.4432 1.25006 19.7535C0.560396 19.0637 0.172475 18.1285 0.171387 17.1531V6.84609C0.172476 5.87073 0.560418 4.93564 1.2501 4.24595C1.93979 3.55627 2.87488 3.16833 3.85024 3.16724H20.149C21.1244 3.16832 22.0596 3.55625 22.7494 4.24591C23.4392 4.93557 23.8273 5.87067 23.8285 6.84609V17.1531C23.8274 18.1286 23.4394 19.0639 22.7496 19.7537C22.0598 20.4435 21.1245 20.8315 20.149 20.8326ZM3.85024 4.88152C3.32937 4.88207 2.82999 5.08922 2.46168 5.45753C2.09337 5.82584 1.88622 6.32522 1.88567 6.84609V17.1531C1.88604 17.6741 2.09311 18.1736 2.46144 18.5421C2.82977 18.9105 3.32926 19.1178 3.85024 19.1183H20.149C20.67 19.1178 21.1696 18.9106 21.538 18.5421C21.9065 18.1737 22.1137 17.6741 22.1142 17.1531V6.84609C22.1135 6.32516 21.9062 5.82578 21.5378 5.45749C21.1694 5.0892 20.6699 4.88207 20.149 4.88152H3.85024Z" />
<path id="Vector_2" d="M11.9905 14.3075C11.2713 14.3146 10.5707 14.079 10.0019 13.6389L0.835255 6.334C0.657484 6.19224 0.543309 5.98566 0.517847 5.75972C0.492385 5.53378 0.557721 5.30697 0.699483 5.1292C0.841245 4.95143 1.04782 4.83725 1.27376 4.81179C1.49971 4.78633 1.72651 4.85167 1.90428 4.99343L11.0682 12.2983C11.3389 12.4904 11.6628 12.5931 11.9947 12.5922C12.3265 12.5914 12.6499 12.487 12.9196 12.2935L21.9703 4.99686C22.1472 4.85419 22.3735 4.78762 22.5994 4.81179C22.8254 4.83597 23.0325 4.94891 23.1751 5.12577C23.3178 5.30263 23.3844 5.52893 23.3602 5.75487C23.336 5.98081 23.2231 6.1879 23.0462 6.33057L13.9982 13.6273C13.4255 14.0751 12.7175 14.315 11.9905 14.3075Z" />
</g>
</svg>
