<svg viewBox="0 0 18 26" xmlns="http://www.w3.org/2000/svg">
<g id="layer1">
<path id="path929" d="M8.99725 0.809326C4.07083 0.809326 0.060549 4.81962 0.0605469 9.74603C0.0605438 18.4144 8.49343 25.0044 8.49343 25.0044C8.63738 25.1193 8.81608 25.1818 9.00025 25.1818C9.18441 25.1818 9.36311 25.1193 9.50706 25.0044C9.50706 25.0044 17.94 18.4144 17.9399 9.74603C17.9399 4.81962 13.9237 0.809326 8.99725 0.809326ZM8.99725 2.43473C13.0454 2.43473 16.3145 5.69783 16.3145 9.74603C16.3146 16.8375 9.89317 22.4402 9.00324 23.1991C8.11756 22.444 1.68594 16.8402 1.68595 9.74603C1.68595 5.69783 4.94905 2.43473 8.99725 2.43473Z" fill="black"/>
<path id="circle931" d="M8.99727 5.68555C6.76324 5.68555 4.93677 7.51202 4.93677 9.74605C4.93675 11.9801 6.76323 13.8125 8.99727 13.8125C11.2313 13.8125 13.0638 11.9801 13.0638 9.74605C13.0638 7.51202 11.2313 5.68555 8.99727 5.68555ZM8.99727 7.31095C10.3531 7.31095 11.4384 8.39023 11.4384 9.74605C11.4384 11.1019 10.3531 12.1871 8.99727 12.1871C7.64144 12.1871 6.56216 11.1019 6.56217 9.74605C6.56217 8.39023 7.64145 7.31095 8.99727 7.31095Z" fill="black"/>
</g>
</svg>
