<svg viewBox="0 0 22 21" xmlns="http://www.w3.org/2000/svg">
<g id="1">
<path id="Vector" d="M15.7091 20.8546C14.9147 20.8487 14.1238 20.749 13.3528 20.5575C10.6904 19.9151 7.94867 18.2856 5.63406 15.9689C3.31945 13.6523 1.68785 10.9101 1.04547 8.25017C0.369063 5.45212 0.851485 3.05829 2.40234 1.50743L2.84516 1.06462C3.24692 0.663664 3.79134 0.438477 4.35895 0.438477C4.92655 0.438477 5.47097 0.663664 5.87274 1.06462L8.41738 3.60876C8.81859 4.01039 9.04395 4.55486 9.04395 5.12255C9.04395 5.69024 8.81859 6.23471 8.41738 6.63634L6.91426 8.13896C7.63484 9.40341 8.61492 10.6689 9.77324 11.8272C10.9316 12.9855 12.198 13.9661 13.462 14.6867L14.9646 13.1836C15.1634 12.9847 15.3994 12.827 15.6591 12.7194C15.9189 12.6118 16.1972 12.5564 16.4784 12.5564C16.7596 12.5564 17.0379 12.6118 17.2977 12.7194C17.5574 12.827 17.7934 12.9847 17.9922 13.1836L20.5363 15.7277C20.9376 16.1292 21.1631 16.6736 21.1631 17.2412C21.1631 17.8089 20.9376 18.3533 20.5363 18.7548L20.093 19.1976C18.9997 20.2929 17.4864 20.8546 15.7091 20.8546ZM4.35895 1.96091C4.27787 1.96051 4.19752 1.97629 4.12262 2.00733C4.04772 2.03837 3.97976 2.08405 3.92273 2.14169L3.47941 2.5845C2.31805 3.74587 1.97883 5.63138 2.52422 7.89064C3.1016 10.284 4.58797 12.7707 6.7091 14.8913C8.83024 17.012 11.3165 18.4968 13.7103 19.0762C15.9701 19.6216 17.8546 19.2824 19.0159 18.121L19.4587 17.6782C19.5744 17.5624 19.6394 17.4054 19.6394 17.2418C19.6394 17.0781 19.5744 16.9211 19.4587 16.8053L16.9151 14.2611C16.7993 14.1454 16.6423 14.0805 16.4787 14.0805C16.315 14.0805 16.158 14.1454 16.0422 14.2611L14.1374 16.1659C14.0231 16.2803 13.8754 16.3553 13.7156 16.3802C13.5558 16.405 13.3923 16.3783 13.2487 16.3041C11.6872 15.4967 10.113 14.3211 8.69617 12.9043C7.27938 11.4875 6.10633 9.91427 5.29688 8.35275C5.22254 8.20918 5.19581 8.04569 5.22055 7.88593C5.24529 7.72617 5.32022 7.57843 5.43449 7.46407L7.33981 5.55927C7.4555 5.44348 7.52049 5.28649 7.52049 5.1228C7.52049 4.95912 7.4555 4.80213 7.33981 4.68634L4.79567 2.14169C4.73846 2.08415 4.6704 2.03854 4.59543 2.00751C4.52046 1.97648 4.44008 1.96064 4.35895 1.96091Z"/>
<path id="Vector_2" d="M16.5225 11.6973C16.3204 11.6973 16.1267 11.617 15.9838 11.4742C15.841 11.3313 15.7607 11.1376 15.7607 10.9356C15.7593 9.59927 15.2278 8.31812 14.2829 7.37317C13.3381 6.42822 12.057 5.89663 10.7207 5.89502C10.5187 5.89502 10.3249 5.81477 10.1821 5.67192C10.0392 5.52907 9.95898 5.33532 9.95898 5.1333C9.95898 4.93128 10.0392 4.73753 10.1821 4.59468C10.3249 4.45183 10.5187 4.37158 10.7207 4.37158C14.3399 4.37158 17.2842 7.31689 17.2842 10.9356C17.2842 11.1376 17.2039 11.3313 17.0611 11.4742C16.9182 11.617 16.7245 11.6973 16.5225 11.6973Z" />
<path id="Vector_3" d="M19.742 11.6971C19.54 11.6971 19.3462 11.6168 19.2034 11.474C19.0605 11.3311 18.9803 11.1374 18.9803 10.9354C18.9803 6.3808 15.2732 2.67529 10.7207 2.67529C10.5187 2.67529 10.3249 2.59504 10.1821 2.45219C10.0392 2.30934 9.95898 2.11559 9.95898 1.91357C9.95898 1.71155 10.0392 1.51781 10.1821 1.37496C10.3249 1.23211 10.5187 1.15186 10.7207 1.15186C16.1152 1.15186 20.5037 5.54088 20.5037 10.9354C20.5037 11.1374 20.4235 11.3311 20.2806 11.474C20.1378 11.6168 19.944 11.6971 19.742 11.6971Z" />
</g>
</svg>
